<?xml version="1.0" encoding="UTF-8" standalone="no"?>
<!-- Created with Inkscape (http://www.inkscape.org/) -->

<svg
   width="210mm"
   height="297mm"
   viewBox="0 0 210 297"
   version="1.1"
   id="svg5"
   inkscape:version="1.1 (c68e22c387, 2021-05-23)"
   sodipodi:docname="logo.svg"
   xmlns:inkscape="http://www.inkscape.org/namespaces/inkscape"
   xmlns:sodipodi="http://sodipodi.sourceforge.net/DTD/sodipodi-0.dtd"
   xmlns:xlink="http://www.w3.org/1999/xlink"
   xmlns="http://www.w3.org/2000/svg"
   xmlns:svg="http://www.w3.org/2000/svg">
  <sodipodi:namedview
     id="namedview7"
     pagecolor="#ffffff"
     bordercolor="#666666"
     borderopacity="1.0"
     inkscape:pageshadow="2"
     inkscape:pageopacity="0.0"
     inkscape:pagecheckerboard="0"
     inkscape:document-units="mm"
     showgrid="false"
     inkscape:zoom="0.32756265"
     inkscape:cx="296.12655"
     inkscape:cy="532.72251"
     inkscape:window-width="1366"
     inkscape:window-height="705"
     inkscape:window-x="-8"
     inkscape:window-y="-8"
     inkscape:window-maximized="1"
     inkscape:current-layer="layer1" />
  <defs
     id="defs2">
    <linearGradient
       inkscape:collect="always"
       id="linearGradient1519">
      <stop
         style="stop-color:#fc02ad;stop-opacity:1"
         offset="0"
         id="stop1515" />
      <stop
         style="stop-color:#010281;stop-opacity:0.97010875"
         offset="1"
         id="stop1517" />
    </linearGradient>
    <linearGradient
       inkscape:collect="always"
       xlink:href="#linearGradient1519"
       id="linearGradient1521"
       x1="70.597122"
       y1="80.90818"
       x2="156.49615"
       y2="180.77019"
       gradientUnits="userSpaceOnUse"
       gradientTransform="matrix(1.9456751,0,0,1.9456751,-98.870299,-90.164946)" />
  </defs>
  <g
     inkscape:label="Layer 1"
     inkscape:groupmode="layer"
     id="layer1">
    <path
       style="fill:url(#linearGradient1521);fill-opacity:1;stroke-width:0.514792"
       d="m 112.44808,262.81063 c -3.93654,-0.81628 -9.50572,-3.89155 -11.87851,-6.55931 -8.189315,-9.20729 -7.630432,-22.72448 1.27511,-30.83945 l 3.25045,-2.96189 -3.5452,-13.91682 c -1.949861,-7.65424 -4.253849,-16.69669 -5.120005,-20.09433 -0.866159,-3.39763 -1.78611,-7.01262 -2.044346,-8.03332 l -0.469518,-1.85579 -3.47512,-0.29983 c -7.458133,-0.6435 -15.596148,-4.69177 -20.185071,-10.0411 -6.888699,-8.03019 -9.242675,-19.52113 -5.975711,-29.17047 3.382241,-9.98985 11.172977,-17.28972 21.185265,-19.85044 6.772232,-1.73206 13.409319,-1.1381 20.037336,1.79315 1.62529,0.71878 3.01496,1.30687 3.08815,1.30687 0.12278,0 29.57872,-30.841123 38.6057,-40.421096 0.56626,-0.600959 3.39316,-3.531201 6.28196,-6.511649 l 5.25239,-5.41899 -1.32026,-3.796341 c -2.82255,-8.116299 -0.68433,-16.944232 5.54276,-22.883873 4.86754,-4.642844 11.18357,-6.744255 17.70471,-5.890557 4.01745,0.525933 6.09088,1.289226 9.40128,3.460922 9.07213,5.951456 12.32391,17.85321 7.54466,27.613757 -2.64181,5.395254 -6.62462,8.947543 -12.49422,11.14364 -3.86648,1.44664 -10.08289,1.478393 -14.08449,0.07194 l -2.90971,-1.022688 -3.25286,3.4236 c -17.1514,18.051695 -27.52474,28.916895 -40.47208,42.391075 -3.45397,3.59455 -6.27996,6.64509 -6.27996,6.77906 0,0.13386 0.80065,1.91424 1.7792,3.95613 2.40746,5.02352 3.02592,8.40049 2.72774,14.8943 -0.28332,6.17055 -1.29021,9.38447 -4.49211,14.33841 -2.49435,3.85925 -5.39834,6.79735 -8.98806,9.09369 l -2.76026,1.76572 5.3584,20.99612 c 2.94714,11.5479 5.48957,21.48994 5.64988,22.09349 0.22751,0.85662 0.8238,1.16795 2.71819,1.41926 3.87288,0.51375 9.23164,3.39122 12.19498,6.54827 4.00601,4.26785 5.54873,7.88895 5.79901,13.61153 0.25165,5.75383 -0.59559,9.05776 -3.43198,13.38321 -4.69355,7.15763 -14.09081,11.16893 -22.2177,9.48379 z m 8.39633,-10.069 c 3.45614,-1.17761 6.77859,-5.00228 7.62291,-8.7752 1.49,-6.65792 -2.71232,-13.10865 -9.53413,-14.6353 -3.41249,-0.76371 -7.35076,0.25234 -10.23231,2.63983 -5.86599,4.86022 -5.68715,14.61489 0.34666,18.90625 3.89476,2.77007 7.47731,3.33626 11.79687,1.86442 z m -20.5383,-88.96864 c 3.59651,-1.75959 7.12655,-5.66221 8.56064,-9.46412 1.61002,-4.26829 1.27132,-10.11646 -0.80706,-13.93514 -1.74816,-3.21194 -5.20309,-6.45913 -8.481428,-7.97152 -3.301656,-1.5231 -10.106651,-1.50555 -13.496461,0.0348 -3.643655,1.65573 -7.239813,5.29772 -8.913442,9.02708 -4.17675,9.30701 1.159463,20.59614 11.058991,23.39603 3.584835,1.01391 8.731078,0.55072 12.07876,-1.08715 z m 81.42195,-93.20504 c 2.94178,-0.873613 6.40859,-4.078471 7.65722,-7.078649 1.71216,-4.113935 0.73864,-9.152576 -2.43328,-12.59369 -2.96472,-3.216357 -4.60256,-3.953708 -8.8678,-3.99231 -3.05942,-0.02768 -3.97606,0.186357 -6.07053,1.417488 -7.91469,4.652309 -8.38782,15.778119 -0.8822,20.745108 3.40483,2.253212 6.56077,2.700564 10.59659,1.502053 z m 5.10763,146.25751 c -8.75942,-4.09704 -11.11582,-15.01464 -4.79144,-22.19952 2.92902,-3.32753 6.36024,-4.89195 10.71155,-4.8838 12.30672,0.0232 18.74953,14.26552 10.62739,23.49277 -4.15357,4.71871 -10.97227,6.19825 -16.5475,3.59055 z M 14.954088,200.72219 c -3.500679,-1.07491 -7.56426,-5.18425 -8.7971944,-8.89625 -2.749589,-8.27828 2.5541841,-17.18395 11.0320734,-18.52413 9.9911,-1.57936 18.502417,7.01541 16.49985,16.66167 -1.79473,8.64522 -10.094804,13.41165 -18.734729,10.75871 z m 148.824262,-6.55625 c -6.96787,-3.65525 -11.1648,-6.29624 -11.7566,-7.39797 -1.6873,-3.14113 0.40886,-7.03314 3.78362,-7.02518 1.94014,0.004 12.66574,5.73951 14.94303,7.99 2.63197,2.60099 1.53915,6.61218 -2.07951,7.63275 -1.44744,0.4082 -2.15788,0.23394 -4.89054,-1.1996 z M 41.946262,177.98961 c -1.852263,-1.85226 -2.05617,-3.97929 -0.56339,-5.87706 0.553214,-0.70327 3.043522,-2.44596 5.534025,-3.87263 9.499038,-5.44142 10.607314,-5.71835 13.061881,-3.26379 2.671839,2.67184 1.814206,5.73533 -2.273152,8.11975 -8.799491,5.13335 -10.424109,5.95783 -12.21232,6.19768 -1.70163,0.22825 -2.196941,0.0461 -3.547044,-1.30395 z m 89.549158,-2.14985 c -3.53921,-1.96927 -6.95614,-4.18076 -7.59319,-4.91442 -1.53547,-1.76822 -1.47169,-3.91378 0.17453,-5.8701 2.11738,-2.51638 3.99073,-2.20828 11.02228,1.81268 6.665,3.81136 8.00643,4.88225 8.4802,6.76987 0.66852,2.66355 -1.89245,5.80206 -4.72238,5.78733 -0.50955,-0.002 -3.82216,-1.61606 -7.36136,-3.58536 z M 70.386726,115.33499 c -0.608846,-0.42645 -2.657574,-3.69824 -4.552731,-7.27065 -3.316034,-6.25082 -3.423863,-6.56827 -2.86489,-8.433971 0.949587,-3.169487 4.756706,-4.422275 7.342662,-2.416213 0.466901,0.362206 2.313114,3.314174 4.102695,6.559924 3.82562,6.9385 4.178802,9.08271 1.828993,11.10393 -1.652816,1.4217 -4.196093,1.62014 -5.856729,0.45698 z M 56.186541,89.12439 C 54.874202,88.128997 48.61372,76.171464 48.61372,74.660298 c 0,-0.693839 0.665635,-2.006478 1.479161,-2.916977 1.143551,-1.279863 1.896936,-1.655461 3.320547,-1.655461 2.549263,0 3.50739,1.043515 7.010773,7.635499 3.79858,7.147477 4.057764,8.666152 1.854948,10.86897 -1.437426,1.437423 -4.541575,1.708502 -6.092608,0.532061 z M 38.488759,67.256075 C 31.657376,65.502857 26.907284,58.748314 27.70896,51.927369 c 1.052221,-8.952897 9.532232,-14.768921 17.961032,-12.318604 7.662982,2.227694 12.106788,10.020374 9.948275,17.445405 -1.703613,5.860215 -6.581655,9.929512 -12.447787,10.384053 -1.67797,0.13003 -3.784727,0.04803 -4.681721,-0.182154 z"
       id="path890" />
  </g>
</svg>
