<?xml version="1.0" standalone="no"?>
<!DOCTYPE svg PUBLIC "-//W3C//DTD SVG 20010904//EN"
 "http://www.w3.org/TR/2001/REC-SVG-20010904/DTD/svg10.dtd">
<svg version="1.0" xmlns="http://www.w3.org/2000/svg"
 width="854.000000pt" height="854.000000pt" viewBox="0 0 854.000000 854.000000"
 preserveAspectRatio="xMidYMid meet">
<metadata>
Created by potrace 1.14, written by Peter Selinger 2001-2017
</metadata>
<g transform="translate(0.000000,854.000000) scale(0.100000,-0.100000)"
fill="#000000" stroke="none">
<path d="M6820 8525 c-158 -34 -299 -111 -415 -229 -159 -160 -234 -332 -241
-551 -4 -130 5 -183 52 -328 20 -59 34 -111 32 -116 -2 -5 -102 -112 -223
-237 -121 -125 -236 -244 -255 -265 -19 -20 -101 -106 -182 -190 -80 -85 -163
-172 -183 -194 -44 -46 -362 -380 -640 -670 -317 -331 -400 -415 -410 -415 -6
0 -52 18 -102 39 -169 74 -297 103 -463 106 -484 8 -910 -279 -1085 -733 -49
-128 -67 -218 -71 -357 -5 -150 23 -329 65 -430 49 -116 69 -157 95 -200 114
-188 256 -319 454 -419 153 -77 288 -114 477 -131 39 -4 73 -10 77 -13 5 -6
38 -122 53 -192 3 -14 35 -139 186 -730 39 -151 97 -377 129 -503 l58 -227
-46 -43 c-87 -78 -169 -164 -199 -208 -170 -248 -191 -566 -54 -837 35 -70
112 -177 155 -215 43 -39 139 -107 150 -106 5 0 12 -3 15 -8 17 -24 217 -106
243 -100 10 3 16 1 12 -4 -3 -5 7 -10 23 -10 145 -7 189 -6 258 6 240 42 442
175 569 375 23 35 39 66 38 69 -2 2 0 7 5 10 13 9 50 107 64 166 19 89 17 300
-5 400 -12 59 -50 154 -78 199 -125 200 -325 345 -547 397 -47 11 -94 22 -104
25 -19 6 -36 33 -43 67 -2 12 -45 180 -94 372 -50 193 -93 361 -96 374 -3 14
-14 57 -25 97 -11 40 -22 81 -24 91 -2 10 -40 160 -84 334 -45 173 -81 320
-81 325 0 5 42 36 93 69 163 105 324 286 418 470 70 136 96 271 97 504 1 215
-15 285 -114 505 -47 105 -52 121 -40 138 15 21 70 80 340 362 245 256 246
256 456 476 102 106 203 212 225 235 248 261 395 415 609 640 79 83 166 174
193 204 l50 54 78 -27 c82 -28 229 -53 305 -50 218 6 385 71 558 219 86 72
186 240 227 380 37 124 40 310 7 429 -88 311 -331 540 -637 601 -67 14 -261
13 -325 0z m312 -369 c64 -20 93 -40 163 -110 76 -76 111 -136 134 -228 47
-186 -14 -342 -186 -476 -72 -55 -155 -82 -263 -86 -202 -7 -411 164 -449 368
-41 218 87 447 294 528 54 21 243 23 307 4z m-3234 -3181 c216 -29 450 -260
496 -490 27 -138 8 -313 -48 -423 -59 -116 -186 -247 -293 -301 -141 -71 -363
-85 -506 -31 -59 22 -158 81 -204 120 -53 46 -126 144 -159 215 -125 264 -66
553 154 755 107 99 201 145 322 156 30 3 56 7 58 8 4 4 130 -2 180 -9z m845
-3696 c186 -34 343 -193 371 -374 2 -16 5 -32 6 -35 7 -17 -3 -123 -15 -165
-18 -60 -62 -138 -103 -182 -16 -17 -27 -34 -24 -37 3 -3 0 -6 -7 -6 -6 0 -22
-9 -34 -21 -61 -57 -214 -101 -319 -92 -100 8 -237 80 -307 159 -164 186 -135
504 60 657 113 88 239 121 372 96z"/>
<path d="M1710 8454 c-94 -24 -177 -72 -249 -144 -181 -182 -212 -461 -74
-670 79 -119 218 -216 341 -238 131 -23 292 8 397 76 251 162 325 493 166 739
-46 70 -129 148 -200 187 -109 59 -264 79 -381 50z"/>
<path d="M2224 7289 c-37 -11 -100 -77 -121 -126 -13 -33 -13 -40 7 -94 34
-90 156 -324 228 -437 42 -66 83 -87 159 -79 64 7 105 30 140 79 23 34 25 45
20 94 -11 103 -221 494 -291 542 -38 26 -98 35 -142 21z"/>
<path d="M2734 6291 c-66 -30 -108 -98 -106 -169 2 -50 155 -350 244 -480 58
-84 141 -105 229 -59 123 65 117 167 -24 422 -24 44 -54 98 -67 120 -44 80
-95 147 -122 161 -48 25 -108 27 -154 5z"/>
<path d="M2338 3748 c-144 -50 -492 -264 -530 -325 -48 -78 -19 -173 72 -236
35 -24 104 -21 174 8 89 36 414 225 456 265 68 63 86 129 54 193 -18 34 -88
106 -107 109 -46 6 -73 3 -119 -14z"/>
<path d="M4988 3747 c-48 -33 -90 -107 -90 -157 1 -62 34 -104 131 -169 178
-119 440 -254 488 -253 56 2 121 49 152 108 19 38 20 106 2 139 -27 47 -118
114 -273 203 -264 150 -342 175 -410 129z"/>
<path d="M900 3394 c-247 -42 -428 -253 -436 -509 -5 -163 38 -267 161 -391
118 -118 224 -162 385 -158 148 3 243 42 368 149 52 44 129 182 148 266 11 45
13 174 3 224 -16 89 -75 193 -149 267 -131 129 -299 182 -480 152z"/>
<path d="M6090 3143 c-86 -33 -133 -148 -96 -237 13 -31 98 -102 167 -139 13
-7 35 -20 49 -29 37 -24 164 -93 257 -139 87 -44 131 -50 186 -28 97 40 136
142 90 233 -8 17 -23 38 -32 46 -26 25 -104 80 -113 80 -4 0 -17 8 -28 18 -19
15 -207 120 -255 141 -11 5 -46 21 -79 35 -55 24 -112 32 -146 19z"/>
<path d="M7435 2765 c-194 -35 -365 -201 -418 -408 -19 -70 -15 -192 7 -266
96 -323 473 -482 766 -323 64 35 131 92 124 104 -4 6 -2 8 4 4 12 -7 62 50 88
103 11 20 21 38 24 41 3 3 15 34 25 70 31 101 27 244 -10 335 -49 122 -135
225 -234 281 -104 58 -254 81 -376 59z"/>
</g>
</svg>
